<?xml version="1.0" encoding="UTF-8"?>
<svg id="Layer_1" xmlns="http://www.w3.org/2000/svg" version="1.1" xmlns:xlink="http://www.w3.org/1999/xlink" viewBox="0 0 3354 1374">
  <!-- Generator: Adobe Illustrator 29.1.0, SVG Export Plug-In . SVG Version: 2.1.0 Build 142)  -->
  <defs>
    <style>
      .st0 {
        stroke-width: 15px;
      }

      .st0, .st1, .st2, .st3, .st4, .st5, .st6, .st7, .st8, .st9 {
        stroke-miterlimit: 10;
      }

      .st0, .st6 {
        fill: none;
        stroke: #4d4d4d;
      }

      .st1 {
        fill: url(#linear-gradient2);
      }

      .st1, .st2, .st3, .st4, .st5, .st7, .st8, .st9 {
        stroke: #fff;
      }

      .st1, .st5, .st7 {
        stroke-width: 40px;
      }

      .st2, .st3, .st4, .st9 {
        stroke-width: 20px;
      }

      .st2, .st10, .st8 {
        fill: #4d4d4d;
      }

      .st3 {
        fill: url(#linear-gradient5);
      }

      .st4 {
        fill: url(#linear-gradient3);
      }

      .st11 {
        fill: #fff;
      }

      .st5 {
        fill: url(#linear-gradient1);
      }

      .st6, .st8 {
        stroke-width: 25px;
      }

      .st7 {
        fill: url(#linear-gradient);
      }

      .st9 {
        fill: url(#linear-gradient4);
      }
    </style>
    <linearGradient id="linear-gradient" x1="2795.6" y1="1317" x2="2795.6" y2="488.3" gradientTransform="translate(0 1374) scale(1 -1)" gradientUnits="userSpaceOnUse">
      <stop offset="0" stop-color="#d4b258"/>
      <stop offset=".4" stop-color="#b29650"/>
      <stop offset="1" stop-color="#7a6944"/>
    </linearGradient>
    <linearGradient id="linear-gradient1" x1="2796.2" y1="1173.8" x2="2796.2" y2="345.1" gradientTransform="translate(0 1374) scale(1 -1)" gradientUnits="userSpaceOnUse">
      <stop offset="0" stop-color="#0f8af7"/>
      <stop offset=".7" stop-color="#0f60ad"/>
      <stop offset="1" stop-color="#104e8c"/>
    </linearGradient>
    <linearGradient id="linear-gradient2" x1="2794.5" y1="1024" x2="2794.5" y2="195.4" gradientTransform="translate(0 1374) scale(1 -1)" gradientUnits="userSpaceOnUse">
      <stop offset="0" stop-color="#007258"/>
      <stop offset=".3" stop-color="#006e55"/>
      <stop offset=".6" stop-color="#01644d"/>
      <stop offset=".8" stop-color="#045440"/>
      <stop offset="1" stop-color="#074434"/>
    </linearGradient>
    <linearGradient id="linear-gradient3" x1="2673.9" y1="168.1" x2="2673.9" y2="57" gradientTransform="translate(0 1374) scale(1 -1)" gradientUnits="userSpaceOnUse">
      <stop offset="0" stop-color="#d4b258"/>
      <stop offset=".2" stop-color="#d0af57"/>
      <stop offset=".4" stop-color="#c5a654"/>
      <stop offset=".6" stop-color="#b49850"/>
      <stop offset=".8" stop-color="#9b834b"/>
      <stop offset="1" stop-color="#7a6944"/>
      <stop offset="1" stop-color="#7a6944"/>
    </linearGradient>
    <linearGradient id="linear-gradient4" x1="2918" y1="168.1" x2="2918" y2="57" gradientTransform="translate(0 1374) scale(1 -1)" gradientUnits="userSpaceOnUse">
      <stop offset="0" stop-color="#0f8af7"/>
      <stop offset=".2" stop-color="#0f86f1"/>
      <stop offset=".4" stop-color="#0f7de0"/>
      <stop offset=".6" stop-color="#0f6dc4"/>
      <stop offset=".9" stop-color="#0f589e"/>
      <stop offset="1" stop-color="#104e8c"/>
    </linearGradient>
    <linearGradient id="linear-gradient5" x1="2795.9" y1="168.1" x2="2795.9" y2="57" gradientTransform="translate(0 1374) scale(1 -1)" gradientUnits="userSpaceOnUse">
      <stop offset="0" stop-color="#007258"/>
      <stop offset=".3" stop-color="#006c53"/>
      <stop offset=".6" stop-color="#035c47"/>
      <stop offset="1" stop-color="#074434"/>
    </linearGradient>
  </defs>
  <g>
    <path d="M191.9,1066h-48.3v-181.4h-63.3v-38.8h175.5v38.8h-63.9v181.4Z"/>
    <path d="M308.9,845.8h142.5v38.8h-94.5v51h85.2v39.1h-85.2v51h96.3v40.3h-144.3v-220.2h0Z"/>
    <path d="M586.1,973.1l-16.8,16.4v76.5h-49.2v-220.2h49.2v89.8l74.4-89.8h58.8l-81,95.1,88.8,125.1h-59.1l-65.1-92.9h0Z"/>
    <path d="M761,845.8h54.3l87.3,164.1s-3-14.8-3-42.5v-121.6h42.9v220.2h-56.4l-85.5-162.5s3,18,3,39.1v123.5h-42.6v-220.2Z"/>
    <path d="M1109.3,1069.2c-70.2,0-105.9-47.9-105.9-113.7s39.9-112.8,106.2-112.8,106.2,43.5,106.2,112.5-39.6,114-106.5,114h0ZM1109.9,882.4c-38.4,0-57.9,27.1-57.9,72.5s20.1,74.7,57.6,74.7,57.3-30.2,57.3-74.3-19.8-72.8-57-72.8h0Z"/>
    <path d="M1277,845.8h48v179.9h96.9v40.3h-144.9v-220.2h0Z"/>
    <path d="M1568.6,1069.2c-70.2,0-105.9-47.9-105.9-113.7s39.9-112.8,106.2-112.8,106.2,43.5,106.2,112.5-39.6,114-106.5,114h0ZM1569.2,882.4c-38.4,0-57.9,27.1-57.9,72.5s20.1,74.7,57.6,74.7,57.3-30.2,57.3-74.3-19.8-72.8-57-72.8h0Z"/>
    <path d="M1726.1,954.8c0-69,34.5-112.1,108-112.1s83.1,23,95.1,58.9l-44.4,13.9c-6-17.3-22.2-33.4-50.4-33.4-42,0-59.7,29-59.7,72.8s18.3,75.3,60.9,75.3,44.1-8.2,54.6-16.7v-28.3h-48.9v-36.8h92.4v82.5c-21.9,21.7-57.6,38.4-100.2,38.4-76.2,0-107.4-48.8-107.4-114.3h0Z"/>
    <path d="M2004.8,845.8h48v220.2h-48v-220.2Z"/>
  </g>
  <g>
    <path d="M161.2,285.2l-20.2,20.6v96.2h-59V125.2h59v112.9l89.3-112.9h70.6l-97.2,119.6,106.6,157.2h-70.9l-78.1-116.8h0Z"/>
    <path d="M491.4,406c-84.2,0-127.1-60.2-127.1-143s47.9-141.8,127.4-141.8,127.4,54.7,127.4,141.4-47.5,143.4-127.8,143.4h0ZM492.1,171.1c-46.1,0-69.5,34.1-69.5,91.1s24.1,93.9,69.1,93.9,68.8-38,68.8-93.5-23.8-91.5-68.4-91.5h0Z"/>
    <path d="M770,402h-57.6V125.2h104.8c64.1,0,95.4,32.5,95.4,84.7s-20.2,72.5-51.1,83.2l64.1,108.9h-64.8l-55.4-102.2h-35.3v102.2h0ZM811,174.3h-41v76h41.8c29.5,0,42.1-15.4,42.1-38.8s-15.1-37.2-42.8-37.2Z"/>
    <path d="M1019.5,125.2h57.6v276.8h-57.6V125.2Z"/>
    <path d="M1293.1,402h-103.7V125.2h92.9c77.8,0,133.2,42.8,133.2,137s-53.6,139.8-122.4,139.8h0ZM1281.2,173.9h-34.2v179.4h41.4c39.2,0,68.8-31.7,68.8-91.1s-31-88.3-76-88.3h0Z"/>
    <path d="M1623.6,406c-84.2,0-127.1-60.2-127.1-143s47.9-141.8,127.4-141.8,127.4,54.7,127.4,141.4-47.5,143.4-127.8,143.4h0ZM1624.3,171.1c-46.1,0-69.5,34.1-69.5,91.1s24.1,93.9,69.1,93.9,68.8-38,68.8-93.5-23.8-91.5-68.4-91.5h0Z"/>
    <path d="M1902.2,402h-57.6V125.2h104.8c64.1,0,95.4,32.5,95.4,84.7s-20.2,72.5-51.1,83.2l64.1,108.9h-64.8l-55.4-102.2h-35.3v102.2ZM1943.2,174.3h-41v76h41.8c29.5,0,42.1-15.4,42.1-38.8s-15.1-37.2-42.8-37.2Z"/>
  </g>
  <g>
    <path d="M83,661v-219.2h76.8v213.2c0,55.4,24.5,81.1,67.7,81.1s66.2-26.7,66.2-83.7v-210.7h77.3v215.7c0,97.3-55.2,141.6-145,141.6s-143-40.8-143-138.1h0Z"/>
    <path d="M650.3,794h-77.3v-290.3h-101.3v-62h280.8v62h-102.2v290.3h0Z"/>
    <path d="M854.3,441.7h76.8v352.3h-76.8v-352.3Z"/>
    <path d="M1071.3,441.7h76.8v287.8h155v64.5h-231.8v-352.3h0Z"/>
    <path d="M1415.9,441.7h76.8v352.3h-76.8v-352.3Z"/>
    <path d="M1772.1,794h-77.3v-290.3h-101.3v-62h280.8v62h-102.2v290.3h0Z"/>
    <path d="M1976.1,441.7h76.8v352.3h-76.8v-352.3h0Z"/>
  </g>
  <g>
    <path d="M158.2,1266.8h-8.3v-147.7h-53.1v-6.9h114.8v6.9h-53.4v147.7Z"/>
    <path d="M296.2,1112.2h86.2v7.1h-78v64.4h71.8v6.9h-71.8v69h81.4v7.1h-89.7v-154.6h0Z"/>
    <path d="M490.8,1266.8h-8.3v-154.6h45.5c32.2,0,50.6,15.2,50.6,42.3s-9.4,39.6-39.8,43.2l46.2,69h-9.2l-44.8-68.5h-40.2v68.5h0ZM526.7,1119.1h-35.9v72.7h36.8c29.2,0,42.8-13.3,42.8-37.3s-14.3-35.4-43.7-35.4Z"/>
    <path d="M677.3,1112.2h86.2v7.1h-78v64.4h71.8v6.9h-71.8v69h81.4v7.1h-89.7v-154.6h0Z"/>
    <path d="M863.6,1112.2h11l96.1,146.1s-.5-7.8-.5-19.3v-126.7h7.6v154.6h-11l-95.7-146.3s.2,5.1.2,12.7v133.6h-7.8v-154.6Z"/>
    <path d="M1069.9,1187.4c0-45.5,24.8-77.5,72.4-77.5s53.6,15.4,62.6,34.5l-7.8,2.5c-9.2-18.2-25.5-30.1-54.7-30.1-42.1,0-64.2,28.3-64.2,70.6s20.7,74.3,67.8,74.3,43.7-9.7,54.3-18.4v-45.5h-52.4v-7.4h60.5v55.7c-13.6,11.5-33.8,23-62.8,23-51.1,0-75.7-32.9-75.7-81.7Z"/>
    <path d="M1298.1,1187.4c0-45.5,24.8-77.5,72.4-77.5s53.6,15.4,62.6,34.5l-7.8,2.5c-9.2-18.2-25.5-30.1-54.7-30.1-42.1,0-64.2,28.3-64.2,70.6s20.7,74.3,67.8,74.3,43.7-9.7,54.3-18.4v-45.5h-52.4v-7.4h60.5v55.7c-13.6,11.5-33.8,23-62.8,23-51.1,0-75.7-32.9-75.7-81.7Z"/>
    <path d="M1529.9,1266.8h-8.5l57.5-154.6h11l60.3,154.6h-8.7l-19.1-49.4h-74.5l-17.9,49.4h0ZM1584.4,1117.7l-12.4,33.6-21.4,58.9h69l-22.8-59.1-12.4-33.3h0Z"/>
    <path d="M1734.6,1112.2h11l96.1,146.1s-.5-7.8-.5-19.3v-126.7h7.6v154.6h-11l-95.7-146.3s.2,5.1.2,12.7v133.6h-7.8v-154.6Z"/>
    <path d="M1950.1,1211.8v-99.6h8.3v99.4c0,33.3,20.2,49.9,46.5,49.9s46-16.3,46-51.8v-97.5h8.1v98c0,40.2-19.1,58.9-54.1,58.9s-54.7-18.2-54.7-57.3h0Z"/>
  </g>
  <path class="st7" d="M3208.7,482.6c-.3-31.5-13-58.1-36.4-79.6-.9-.9-1.8-1.8-2.7-2.7-25.7-24.9-51.4-49.8-77.1-74.7-18.9-18.4-37.9-36.9-56.7-55.4-65.1-64.2-129.7-128.8-194.6-193.1-13.9-13.8-29.5-20.5-44.7-20-15.6-1-31.8,5.6-46.2,19.9-64.8,64.4-129.5,128.9-194.5,193.1-9.7,9.6-19.4,19.1-29.2,28.6-.9.9-1.8,1.7-2.6,2.6-34.1,33-68.3,66.1-102.4,99.1-.9.9-1.8,1.8-2.8,2.7-23.4,21.5-36.1,48-36.4,79.6-.5,61.4-.1,122.8-.1,184.3v13.9h.5c0,51,.2,102,.4,153,0,28.5,16,52,51.6,51.7,67.4-.6,134.8-.6,202.2-.5v.2h202.7c1.5,0,3.1,0,5,0,23.6,0,47.1,0,70.7,0h82.5c53-.1,106,0,159,.4,35.6.3,51.5-23.2,51.6-51.7.2-73.3.4-146.5.3-219.8,0-43.9.2-87.8-.2-131.6h0Z"/>
  <path class="st5" d="M3209.3,625.8c-.3-31.5-13-58.1-36.4-79.6-.9-.9-1.8-1.8-2.7-2.7-25.7-24.9-51.4-49.8-77.1-74.7-18.9-18.4-37.9-36.9-56.7-55.4-65.1-64.2-129.7-128.8-194.6-193.1-13.9-13.8-29.5-20.5-44.7-19.9-15.6-1.1-31.8,5.6-46.2,19.9-64.8,64.4-129.5,128.9-194.5,193.1-9.7,9.6-19.4,19.1-29.2,28.6-.9.9-1.8,1.7-2.6,2.6-34.1,33-68.3,66.1-102.4,99.2-.9.9-1.8,1.8-2.8,2.7-23.4,21.5-36.1,48-36.4,79.6-.5,61.4-.1,122.8-.1,184.3v13.9h.5c0,51,.2,102,.4,153,0,28.5,16,52,51.6,51.7,67.4-.6,134.8-.6,202.2-.5v.2h202.7c1.5,0,3.1,0,5,0,23.6,0,47.1,0,70.7,0h82.5c53-.2,106,0,159,.4,35.6.3,51.5-23.2,51.6-51.7.2-73.3.4-146.5.3-219.8,0-43.9.2-87.8-.2-131.6h0Z"/>
  <path class="st1" d="M3207.6,775.5c-.3-31.5-13-58.1-36.4-79.6-.9-.9-1.8-1.8-2.7-2.7-25.7-24.9-51.4-49.8-77.1-74.7-18.9-18.4-37.9-36.9-56.7-55.4-65.1-64.2-129.7-128.8-194.6-193.1-13.9-13.8-29.5-20.5-44.7-20-15.6-1-31.8,5.6-46.2,19.9-64.8,64.4-129.5,128.9-194.5,193.1-9.7,9.6-19.4,19.1-29.2,28.6-.9.8-1.8,1.7-2.6,2.6-34.1,33-68.3,66.1-102.4,99.2-.9.9-1.8,1.8-2.8,2.7-23.4,21.5-36.1,48-36.4,79.6-.5,61.4-.1,122.8-.1,184.3v13.9h.5c0,51,.2,102,.4,153,0,28.4,16,52,51.6,51.7,67.4-.6,134.8-.6,202.2-.5v.2h202.7c1.5,0,3.1,0,5,0,23.6,0,47.1,0,70.7,0h82.5c53-.2,106,0,159,.4,35.6.3,51.5-23.2,51.6-51.7.2-73.3.4-146.5.3-219.8,0-43.9.2-87.8-.2-131.6h0Z"/>
  <g>
    <path class="st2" d="M2673.6,1116.2c141.1,0,282.2,0,423.3-.1,2.9,0,6.1-.7,8.2,2.2-9.1,12.4-18.3,24.7-29.4,35.5-8.5,8.3-18.9,12.7-30.9,13.5-17.1,1.2-34.2-1.3-51.2,1.4-68.8,0-137.5,0-206.3,0-14.1-2.4-28.3-1.2-42.4-.9-20.1.5-35.9-7-48.1-22.3-7.8-9.7-15.4-19.5-23.1-29.3Z"/>
    <path class="st2" d="M3138.1,977.7c35.2,9.6,59.8,37.2,60.8,65.6,1.4,38.2-39.7,77.7-93.7,73.3-149.9,0-299.8,0-449.8,0-3.6,0-7.6,1.2-10.4-2.3.6-1.5,1.1-3.1,1.8-4.5,18.9-41.6,14.3-80.1-17-114.8-5.7-6.3-12.6-11.7-18.9-17.5,11-.1,21.9-.3,32.9-.4,1.4,0,3.1,0,5,.1.9,0,6.5.1,12.9.1,12.1,0,256.7-2,435.6-.1,4.4,0,12.1.1,21.7.3,6.3,0,12.7.1,19,.2Z"/>
    <path class="st11" d="M2598.2,964.3c9.6,4.7,19.2,9.5,28.8,14.2,6.3,5.9,13,11.3,18.7,17.8,30.8,35.2,35.4,74.2,16.7,116.4-.7,1.5-1.2,3.1-1.8,4.6-9.6,14.5-21.4,27.1-35.4,37.5-36.7,21.2-74.2,23.6-111.6,2.7-46.3-26-65.4-80.7-46.2-129.6,18.9-48.3,71.1-75.6,123-64.4,2.6.6,5.3.5,7.9.8h0Z"/>
    <path class="st8" d="M2812.5,971.6c-46.9-10.6-116.9-32.4-190-81.1-102.7-68.3-158.1-153.9-184-201-10.3,10.7-20.7,21.3-31,32,33,71.7,91.1,164.6,193.1,229.8,12.9,8.2,25.7,15.5,38.4,22.1,27.1-.3,54.2-.7,81.3-1,30.7-.3,61.4-.6,92.2-.9Z"/>
  </g>
  <circle class="st4" cx="2673.9" cy="1261.5" r="55.6"/>
  <circle class="st9" cx="2918" cy="1261.4" r="55.6"/>
  <circle class="st3" cx="2795.9" cy="1261.4" r="55.6"/>
  <g>
    <ellipse class="st6" cx="2566.5" cy="1067" rx="79.5" ry="80"/>
    <ellipse class="st0" cx="2566.6" cy="1067.1" rx="44.3" ry="44.6"/>
    <ellipse class="st10" cx="2567.2" cy="1065.8" rx="19.2" ry="19.3"/>
    <path class="st10" d="M2566.9,1064.3c-4.9.2-8.3-2.4-9.1-3.1,1.6-23.6,3.3-47.1,4.9-70.7,0-2,1.6-3.6,3.5-3.6s3.5,1.6,3.5,3.6c2.1,23.3,4.2,46.6,6.3,69.9-.8.7-4,3.7-9.1,3.8h0Z"/>
    <path class="st10" d="M2572.4,1064.9c2.3-4.4,6.2-6,7.2-6.4,19.5,13.2,38.9,26.4,58.4,39.6,1.7,1,2.3,3.2,1.3,4.9s-3.2,2.3-4.8,1.3c-21.1-9.8-42.2-19.7-63.3-29.5-.2-1-1.1-5.3,1.3-9.9h0Z"/>
    <path class="st10" d="M2562.2,1065.8c2.6,4.2,2.1,8.4,1.9,9.5-21.1,10.4-42.2,20.7-63.3,31.1-1.7,1-3.9.4-4.8-1.3-1-1.7-.4-3.9,1.3-4.9,19-13.5,38-27,57-40.4,1,.3,5.2,1.7,7.9,6Z"/>
  </g>
</svg>