<?xml version="1.0" encoding="UTF-8"?><svg id="Layer_1" xmlns="http://www.w3.org/2000/svg" xmlns:xlink="http://www.w3.org/1999/xlink" viewBox="0 0 3354 1374"><defs><linearGradient id="linear-gradient" x1="2795.59" y1="1317.01" x2="2795.59" y2="488.34" gradientTransform="translate(0 1374) scale(1 -1)" gradientUnits="userSpaceOnUse"><stop offset="0" stop-color="#d4b258"/><stop offset=".4" stop-color="#b29650"/><stop offset="1" stop-color="#7a6944"/></linearGradient><linearGradient id="linear-gradient-2" x1="2796.24" y1="1173.76" x2="2796.24" y2="345.09" gradientTransform="translate(0 1374) scale(1 -1)" gradientUnits="userSpaceOnUse"><stop offset="0" stop-color="#0f8af7"/><stop offset=".66" stop-color="#0f60ad"/><stop offset="1" stop-color="#104e8c"/></linearGradient><linearGradient id="linear-gradient-3" x1="2794.51" y1="1024.03" x2="2794.51" y2="195.36" gradientTransform="translate(0 1374) scale(1 -1)" gradientUnits="userSpaceOnUse"><stop offset="0" stop-color="#007258"/><stop offset=".33" stop-color="#006e55"/><stop offset=".6" stop-color="#01644d"/><stop offset=".84" stop-color="#045440"/><stop offset="1" stop-color="#074434"/></linearGradient><linearGradient id="linear-gradient-4" x1="2673.9" y1="168.09" x2="2673.9" y2="56.97" gradientTransform="translate(0 1374) scale(1 -1)" gradientUnits="userSpaceOnUse"><stop offset="0" stop-color="#d4b258"/><stop offset=".23" stop-color="#d0af57"/><stop offset=".44" stop-color="#c5a654"/><stop offset=".63" stop-color="#b49850"/><stop offset=".82" stop-color="#9b834b"/><stop offset="1" stop-color="#7a6944"/><stop offset="1" stop-color="#7a6944"/></linearGradient><linearGradient id="linear-gradient-5" x1="2918.01" y1="168.14" x2="2918.01" y2="57.02" gradientTransform="translate(0 1374) scale(1 -1)" gradientUnits="userSpaceOnUse"><stop offset="0" stop-color="#0f8af7"/><stop offset=".16" stop-color="#0f86f1"/><stop offset=".38" stop-color="#0f7de0"/><stop offset=".62" stop-color="#0f6dc4"/><stop offset=".89" stop-color="#0f589e"/><stop offset="1" stop-color="#104e8c"/></linearGradient><linearGradient id="linear-gradient-6" x1="2795.92" y1="168.14" x2="2795.92" y2="57.02" gradientTransform="translate(0 1374) scale(1 -1)" gradientUnits="userSpaceOnUse"><stop offset="0" stop-color="#007258"/><stop offset=".28" stop-color="#006c53"/><stop offset=".62" stop-color="#035c47"/><stop offset="1" stop-color="#074434"/></linearGradient></defs><path d="M191.87,1066h-48.3v-181.44h-63.3v-38.75h175.5v38.75h-63.9v181.44Z" style="fill:#f9f9f9;"/><path d="M308.87,845.82h142.5v38.75h-94.5v51.03h85.2v39.06h-85.2v51.03h96.3v40.32h-144.3v-220.19h0Z" style="fill:#f9f9f9;"/><path d="M586.07,973.08l-16.8,16.38v76.55h-49.2v-220.19h49.2v89.78l74.4-89.78h58.8l-81,95.13,88.8,125.06h-59.1l-65.1-92.93h0Z" style="fill:#f9f9f9;"/><path d="M760.96,845.82h54.3l87.3,164.12s-3-14.81-3-42.53v-121.59h42.9v220.19h-56.4l-85.5-162.54s3,17.96,3,39.06v123.48h-42.6v-220.19Z" style="fill:#f9f9f9;"/><path d="M1109.26,1069.15c-70.2,0-105.9-47.88-105.9-113.72,0-70.25,39.9-112.77,106.2-112.77s106.2,43.47,106.2,112.46-39.6,114.03-106.5,114.03h0ZM1109.86,882.35c-38.4,0-57.9,27.09-57.9,72.45s20.1,74.66,57.6,74.66c40.2,0,57.3-30.24,57.3-74.34s-19.8-72.77-57-72.77h0Z" style="fill:#f9f9f9;"/><path d="M1276.96,845.82h48v179.87h96.9v40.32h-144.9v-220.19h0Z" style="fill:#f9f9f9;"/><path d="M1568.56,1069.15c-70.2,0-105.9-47.88-105.9-113.72,0-70.25,39.9-112.77,106.2-112.77s106.2,43.47,106.2,112.46-39.6,114.03-106.5,114.03h0ZM1569.16,882.35c-38.4,0-57.9,27.09-57.9,72.45s20.1,74.66,57.6,74.66c40.2,0,57.3-30.24,57.3-74.34s-19.8-72.77-57-72.77h0Z" style="fill:#f9f9f9;"/><path d="M1726.06,954.81c0-68.99,34.5-112.14,108-112.14,52.8,0,83.1,23,95.1,58.91l-44.4,13.86c-6-17.33-22.2-33.39-50.4-33.39-42,0-59.7,28.98-59.7,72.77s18.3,75.29,60.9,75.29c23.7,0,44.1-8.19,54.6-16.7v-28.35h-48.9v-36.85h92.4v82.53c-21.9,21.74-57.6,38.43-100.2,38.43-76.2,0-107.4-48.83-107.4-114.35h0Z" style="fill:#f9f9f9;"/><path d="M2004.76,845.82h48v220.19h-48v-220.19Z" style="fill:#f9f9f9;"/><path d="M161.24,285.17l-20.16,20.59v96.23h-59.04V125.19h59.04v112.86l89.28-112.86h70.56l-97.2,119.59,106.56,157.21h-70.92l-78.12-116.82h0Z" style="fill:#f9f9f9;"/><path d="M491.37,405.95c-84.24,0-127.08-60.19-127.08-142.95,0-88.31,47.88-141.77,127.44-141.77s127.44,54.65,127.44,141.37-47.52,143.35-127.8,143.35h0ZM492.09,171.12c-46.08,0-69.48,34.06-69.48,91.08s24.12,93.85,69.12,93.85c48.24,0,68.76-38.02,68.76-93.46s-23.76-91.48-68.4-91.48h0Z" style="fill:#f9f9f9;"/><path d="M770,401.99h-57.6V125.19h104.76c64.08,0,95.4,32.47,95.4,84.74,0,47.12-20.16,72.47-51.12,83.16l64.08,108.9h-64.8l-55.44-102.17h-35.28v102.17h0ZM811.04,174.29h-41.04v76.03h41.76c29.52,0,42.12-15.44,42.12-38.81,0-24.95-15.12-37.22-42.84-37.22Z" style="fill:#f9f9f9;"/><path d="M1019.48,125.19h57.6v276.8h-57.6V125.19Z" style="fill:#f9f9f9;"/><path d="M1293.07,401.99h-103.68V125.19h92.88c77.76,0,133.2,42.77,133.2,137.01s-53.64,139.79-122.4,139.79h0ZM1281.19,173.9h-34.2v179.39h41.4c39.24,0,68.76-31.68,68.76-91.08s-30.96-88.31-75.96-88.31h0Z" style="fill:#f9f9f9;"/><path d="M1623.55,405.95c-84.24,0-127.08-60.19-127.08-142.95,0-88.31,47.88-141.77,127.44-141.77s127.44,54.65,127.44,141.37-47.52,143.35-127.8,143.35h0ZM1624.27,171.12c-46.08,0-69.48,34.06-69.48,91.08s24.12,93.85,69.12,93.85c48.24,0,68.76-38.02,68.76-93.46s-23.76-91.48-68.4-91.48h0Z" style="fill:#f9f9f9;"/><path d="M1902.19,401.99h-57.6V125.19h104.76c64.08,0,95.4,32.47,95.4,84.74,0,47.12-20.16,72.47-51.12,83.16l64.08,108.9h-64.8l-55.44-102.17h-35.28v102.17ZM1943.23,174.29h-41.04v76.03h41.76c29.52,0,42.12-15.44,42.12-38.81,0-24.95-15.12-37.22-42.84-37.22Z" style="fill:#f9f9f9;"/><path d="M82.98,660.95v-219.24h76.8v213.19c0,55.44,24.48,81.14,67.68,81.14s66.24-26.71,66.24-83.66v-210.67h77.28v215.71c0,97.27-55.2,141.62-144.96,141.62s-143.04-40.82-143.04-138.1h0Z" style="fill:#f9f9f9;"/><path d="M650.33,794h-77.28v-290.3h-101.28v-61.99h280.8v61.99h-102.24v290.3h0Z" style="fill:#f9f9f9;"/><path d="M854.33,441.71h76.8v352.29h-76.8v-352.29Z" style="fill:#f9f9f9;"/><path d="M1071.28,441.71h76.8v287.78h155.04v64.51h-231.84v-352.29h0Z" style="fill:#f9f9f9;"/><path d="M1415.92,441.71h76.8v352.29h-76.8v-352.29Z" style="fill:#f9f9f9;"/><path d="M1772.07,794h-77.28v-290.3h-101.28v-61.99h280.8v61.99h-102.24v290.3h0Z" style="fill:#f9f9f9;"/><path d="M1976.07,441.71h76.8v352.29h-76.8v-352.29h0Z" style="fill:#f9f9f9;"/><path d="M158.21,1266.77h-8.28v-147.66h-53.13v-6.9h114.77v6.9h-53.36v147.66Z" style="fill:#f9f9f9;"/><path d="M296.21,1112.21h86.25v7.13h-77.97v64.4h71.76v6.9h-71.76v69h81.42v7.13h-89.7v-154.56h0Z" style="fill:#f9f9f9;"/><path d="M490.79,1266.77h-8.28v-154.56h45.54c32.2,0,50.6,15.18,50.6,42.32,0,20.24-9.43,39.56-39.79,43.24l46.23,69h-9.2l-44.85-68.54h-40.25v68.54h0ZM526.67,1119.11h-35.88v72.68h36.8c29.21,0,42.78-13.34,42.78-37.26,0-21.39-14.26-35.42-43.7-35.42Z" style="fill:#f9f9f9;"/><path d="M677.32,1112.21h86.25v7.13h-77.97v64.4h71.76v6.9h-71.76v69h81.42v7.13h-89.7v-154.56h0Z" style="fill:#f9f9f9;"/><path d="M863.62,1112.21h11.04l96.14,146.05s-.46-7.82-.46-19.32v-126.73h7.59v154.56h-11.04l-95.68-146.28s.23,5.06.23,12.65v133.63h-7.82v-154.56Z" style="fill:#f9f9f9;"/><path d="M1069.92,1187.42c0-45.54,24.84-77.51,72.45-77.51,36.34,0,53.59,15.41,62.56,34.5l-7.82,2.53c-9.2-18.17-25.53-30.13-54.74-30.13-42.09,0-64.17,28.29-64.17,70.61s20.7,74.29,67.85,74.29c25.99,0,43.7-9.66,54.28-18.4v-45.54h-52.44v-7.36h60.49v55.66c-13.57,11.5-33.81,23-62.79,23-51.06,0-75.67-32.89-75.67-81.65Z" style="fill:#f9f9f9;"/><path d="M1298.08,1187.42c0-45.54,24.84-77.51,72.45-77.51,36.34,0,53.59,15.41,62.56,34.5l-7.82,2.53c-9.2-18.17-25.53-30.13-54.74-30.13-42.09,0-64.17,28.29-64.17,70.61s20.7,74.29,67.85,74.29c25.99,0,43.7-9.66,54.28-18.4v-45.54h-52.44v-7.36h60.49v55.66c-13.57,11.5-33.81,23-62.79,23-51.06,0-75.67-32.89-75.67-81.65Z" style="fill:#f9f9f9;"/><path d="M1529.92,1266.77h-8.51l57.5-154.56h11.04l60.26,154.56h-8.74l-19.09-49.45h-74.52l-17.94,49.45h0ZM1584.43,1117.73l-12.42,33.58-21.39,58.88h69l-22.77-59.11-12.42-33.35h0Z" style="fill:#f9f9f9;"/><path d="M1734.62,1112.21h11.04l96.14,146.05s-.46-7.82-.46-19.32v-126.73h7.59v154.56h-11.04l-95.68-146.28s.23,5.06.23,12.65v133.63h-7.82v-154.56Z" style="fill:#f9f9f9;"/><path d="M1950.12,1211.8v-99.59h8.28v99.36c0,33.35,20.24,49.91,46.46,49.91,30.59,0,46-16.33,46-51.75v-97.52h8.05v97.98c0,40.25-19.09,58.88-54.05,58.88-30.82,0-54.74-18.17-54.74-57.27h0Z" style="fill:#f9f9f9;"/><path d="M3208.69,482.57c-.27-31.53-13-58.12-36.36-79.58-.94-.86-1.83-1.78-2.74-2.66-25.71-24.91-51.41-49.81-77.12-74.72-18.94-18.43-37.85-36.88-56.66-55.43-65.06-64.19-129.72-128.77-194.61-193.13-13.89-13.78-29.54-20.46-44.67-19.95-15.6-1.05-31.84,5.59-46.2,19.85-64.84,64.36-129.46,128.94-194.47,193.13-9.7,9.57-19.43,19.11-29.17,28.64-.88.85-1.76,1.71-2.65,2.56-34.14,33.05-68.27,66.1-102.41,99.15-.92.89-1.81,1.8-2.75,2.66-23.38,21.45-36.12,48.04-36.39,79.58-.52,61.42-.15,122.84-.15,184.27v13.93h.5c.05,51.02.2,102.03.37,153.04.09,28.45,16,51.98,51.56,51.65,67.41-.61,134.82-.57,202.24-.47v.16h202.72c1.5.05,3.14.07,5.01.07,23.57,0,47.15-.03,70.72-.07h82.52v-.11c53-.04,105.99.04,158.99.52,35.58.32,51.5-23.21,51.6-51.65.24-73.27.45-146.53.33-219.8.08-43.88.16-87.76-.21-131.64h0Z" style="fill:url(#linear-gradient); stroke:#fff; stroke-miterlimit:10; stroke-width:40px;"/><path d="M3209.34,625.82c-.27-31.53-13-58.12-36.36-79.58-.94-.86-1.83-1.78-2.74-2.66-25.71-24.91-51.41-49.81-77.12-74.72-18.94-18.43-37.85-36.88-56.66-55.43-65.06-64.19-129.72-128.77-194.61-193.13-13.89-13.78-29.54-20.46-44.67-19.95-15.6-1.05-31.84,5.59-46.2,19.85-64.84,64.36-129.46,128.94-194.47,193.13-9.7,9.57-19.43,19.11-29.17,28.64-.88.85-1.76,1.71-2.65,2.56-34.14,33.05-68.27,66.1-102.41,99.15-.92.89-1.81,1.8-2.75,2.66-23.38,21.45-36.12,48.04-36.39,79.58-.52,61.42-.15,122.84-.15,184.27v13.93h.5c.05,51.02.2,102.03.37,153.04.09,28.45,16,51.98,51.56,51.65,67.41-.61,134.82-.57,202.24-.47v.16h202.72c1.5.05,3.14.07,5.01.07,23.57,0,47.15-.03,70.72-.07h82.52v-.11c53-.04,105.99.04,158.99.52,35.58.32,51.5-23.21,51.6-51.65.24-73.27.45-146.53.33-219.8.08-43.88.16-87.76-.21-131.64h0Z" style="fill:url(#linear-gradient-2); stroke:#fff; stroke-miterlimit:10; stroke-width:40px;"/><path d="M3207.61,775.55c-.27-31.53-13-58.12-36.36-79.58-.94-.86-1.83-1.78-2.74-2.66-25.71-24.91-51.41-49.81-77.12-74.72-18.94-18.43-37.85-36.88-56.66-55.43-65.06-64.19-129.72-128.77-194.61-193.13-13.89-13.78-29.54-20.46-44.67-19.95-15.6-1.05-31.84,5.59-46.2,19.85-64.84,64.36-129.46,128.94-194.47,193.13-9.7,9.57-19.43,19.11-29.17,28.64-.88.85-1.76,1.71-2.65,2.56-34.14,33.05-68.27,66.1-102.41,99.15-.92.89-1.81,1.8-2.75,2.66-23.38,21.45-36.12,48.04-36.39,79.58-.52,61.42-.15,122.84-.15,184.27v13.93h.5c.05,51.02.2,102.03.37,153.04.09,28.45,16,51.98,51.56,51.65,67.41-.61,134.82-.57,202.24-.47v.16h202.72c1.5.05,3.14.07,5.01.07,23.57,0,47.15-.03,70.72-.07h82.52v-.11c53-.04,105.99.04,158.99.52,35.58.32,51.5-23.21,51.6-51.65.24-73.27.45-146.53.33-219.8.08-43.88.16-87.76-.21-131.64h0Z" style="fill:url(#linear-gradient-3); stroke:#fff; stroke-miterlimit:10; stroke-width:40px;"/><path d="M2673.64,1116.21c141.1-.04,282.2-.09,423.3-.11,2.89,0,6.06-.69,8.18,2.21-9.13,12.37-18.34,24.69-29.39,35.48-8.51,8.31-18.9,12.66-30.92,13.51-17.06,1.21-34.22-1.26-51.23,1.42-68.77-.02-137.54-.03-206.32-.05-14.07-2.44-28.28-1.22-42.37-.88-20.12.48-35.86-6.96-48.11-22.32-7.76-9.72-15.43-19.51-23.14-29.26Z" style="fill:#4d4d4d; stroke:#fff; stroke-miterlimit:10; stroke-width:20px;"/><path d="M3138.13,977.65c35.24,9.6,59.78,37.18,60.84,65.57,1.42,38.24-39.73,77.68-93.67,73.32-149.92.01-299.84.03-449.77-.01-3.57,0-7.61,1.24-10.42-2.27.6-1.51,1.12-3.06,1.8-4.54,18.92-41.6,14.31-80.07-16.96-114.75-5.72-6.34-12.6-11.71-18.94-17.52,10.98-.14,21.95-.28,32.93-.42,1.38.04,3.06.09,4.96.13.92.02,6.52.14,12.88.13,12.08-.02,256.69-1.99,435.64-.11,4.44.05,12.09.13,21.68.25,6.34.07,12.69.15,19.03.22Z" style="fill:#4d4d4d; stroke:#fff; stroke-miterlimit:10; stroke-width:20px;"/><path d="M2598.22,964.27c9.59,4.73,19.17,9.47,28.76,14.2,6.26,5.9,13.04,11.35,18.68,17.78,30.83,35.18,35.38,74.22,16.72,116.43-.66,1.5-1.18,3.07-1.77,4.61-9.63,14.5-21.38,27.05-35.44,37.46-36.7,21.17-74.22,23.64-111.61,2.7-46.34-25.96-65.39-80.66-46.23-129.55,18.95-48.34,71.09-75.61,122.98-64.38,2.57.56,5.27.52,7.91.76h0Z" style="fill:#fff;"/><path d="M2812.5,971.57c-46.89-10.55-116.91-32.45-190-81.07-102.69-68.31-158.13-153.91-184-201-10.33,10.67-20.67,21.33-31,32,32.97,71.74,91.08,164.64,193.14,229.84,12.86,8.22,25.71,15.54,38.42,22.06,27.09-.34,54.18-.66,81.26-.95,30.72-.33,61.45-.62,92.18-.88Z" style="fill:#4d4d4d; stroke:#fff; stroke-miterlimit:10; stroke-width:25px;"/><circle cx="2673.9" cy="1261.47" r="55.56" style="fill:url(#linear-gradient-4); stroke:#fff; stroke-miterlimit:10; stroke-width:20px;"/><circle cx="2918.01" cy="1261.42" r="55.56" style="fill:url(#linear-gradient-5); stroke:#fff; stroke-miterlimit:10; stroke-width:20px;"/><circle cx="2795.92" cy="1261.42" r="55.56" style="fill:url(#linear-gradient-6); stroke:#fff; stroke-miterlimit:10; stroke-width:20px;"/><ellipse cx="2566.5" cy="1067" rx="79.5" ry="80" style="fill:none; stroke:#4d4d4d; stroke-miterlimit:10; stroke-width:25px;"/><ellipse cx="2566.55" cy="1067.05" rx="44.33" ry="44.61" style="fill:none; stroke:#4d4d4d; stroke-miterlimit:10; stroke-width:15px;"/><ellipse cx="2567.2" cy="1065.75" rx="19.2" ry="19.32" style="fill:#4d4d4d;"/><path d="M2566.88,1064.32c-4.92.16-8.27-2.37-9.13-3.06,1.63-23.56,3.26-47.13,4.89-70.69,0-1.96,1.6-3.56,3.54-3.56s3.54,1.61,3.54,3.56c2.09,23.31,4.19,46.62,6.28,69.93-.77.74-4.03,3.67-9.13,3.83h0Z" style="fill:#4d4d4d;"/><path d="M2572.35,1064.87c2.32-4.36,6.17-6.02,7.2-6.42,19.46,13.2,38.93,26.41,58.39,39.61,1.68.98,2.27,3.18,1.3,4.87s-3.16,2.28-4.84,1.3c-21.11-9.83-42.21-19.66-63.32-29.49-.25-1.04-1.14-5.35,1.27-9.87h0Z" style="fill:#4d4d4d;"/><path d="M2562.19,1065.8c2.59,4.21,2.09,8.39,1.93,9.49-21.1,10.36-42.19,20.72-63.29,31.08-1.68.98-3.87.39-4.84-1.3-.97-1.69-.39-3.89,1.3-4.87,19.01-13.48,38.03-26.96,57.04-40.44,1.02.31,5.17,1.68,7.86,6.04Z" style="fill:#4d4d4d;"/></svg>