<?xml version="1.0" encoding="UTF-8" standalone="no"?>
<svg
   width="482.521"
   height="611.12897"
   viewBox="0 0 482.521 611.12897"
   version="1.1"
   id="svg14"
   xmlns="http://www.w3.org/2000/svg"
   xmlns:svg="http://www.w3.org/2000/svg">
  <defs
     id="defs2">
    <linearGradient
       id="gradient_0"
       gradientUnits="userSpaceOnUse"
       x1="488.48053"
       y1="336.49478"
       x2="313.08701"
       y2="277.17657"
       gradientTransform="translate(-7.7782568,-13.818911)">
      <stop
         offset="0"
         stop-color="#694A99"
         id="stop1" />
      <stop
         offset="1"
         stop-color="#7337CB"
         id="stop2" />
    </linearGradient>
  </defs>
  <path
     fill="url(#gradient_0)"
     d="m 230.91274,0.10978946 40.847,-0.0037 c 8.301,-0.0016 20.073,-0.4006 28.007,0.3594 13.824,1.32400004 27.787,8.37680004 37.624,18.16059954 10.106,10.0524 14.854,22.1082 21.429,34.5838 3.16,5.9956 7.618,14.1922 10.245,20.1891 3.574,6.3734 6.912,13.2791 10.258,19.8191 l 16.281,31.794001 44.278,86.543 25.299,49.519 c 4.179,8.16 12.09,22.449 14.654,30.614 3.389,11.144 3.575,23.017 0.537,34.262 -2.541,9.056 -10.59,24.057 -15.053,33.193 l -26.662,54.401 -12.765,26.29 c -2.188,4.475 -5.06,10.778 -7.724,14.794 -3.254,4.841 -7.606,8.846 -12.701,11.686 -3.786,2.087 -8.7,3.86 -12.999,4.17 -9.656,0.696 -20.154,0.398 -29.886,0.397 l -43.76,-0.006 c -8.09,0 -16.755,-0.146 -24.797,0.086 2.373,-5.438 5.383,-11.163 8,-16.542 l 15.018,-30.748 37.681,-76.936 12.588,-25.703 c 1.775,-3.645 4.389,-8.586 5.918,-12.176 -15.544,-29.001 -30.754,-59.999 -45.829,-89.439 L 225.35674,19.807189 c -3.165,-6.5275 -6.715,-13.1488995 -9.968,-19.70609954 z"
     id="path2"
     style="fill:url(#gradient_0)" />
  <defs
     id="defs4">
    <linearGradient
       id="gradient_1"
       gradientUnits="userSpaceOnUse"
       x1="423.51288"
       y1="189.36517"
       x2="204.32657"
       y2="128.87029"
       gradientTransform="translate(-7.7782568,-13.818911)">
      <stop
         offset="0"
         stop-color="#33265D"
         id="stop3" />
      <stop
         offset="1"
         stop-color="#5B4594"
         id="stop4" />
    </linearGradient>
  </defs>
  <path
     fill="url(#gradient_1)"
     d="m 230.91274,0.10978946 40.847,-0.0037 c 8.301,-0.0016 20.073,-0.4006 28.007,0.3594 13.824,1.32400004 27.787,8.37680004 37.624,18.16059954 10.106,10.0524 14.854,22.1082 21.429,34.5838 3.16,5.9956 7.618,14.1922 10.245,20.1891 l -0.555,0.2131 c -0.431,1.7739 4.74,12.3786 5.84,15.011 11.613,27.793001 21.63,56.543001 25.643,86.519001 4.316,31.737 0.818,63.789 -9.763,93.989 -2.909,8.343 -12.187,32.887 -17,39.725 -15.544,-29.001 -30.754,-59.999 -45.829,-89.439 L 225.35674,19.807189 c -3.165,-6.5275 -6.715,-13.1488995 -9.968,-19.70609954 z"
     id="path4"
     style="fill:url(#gradient_1)" />
  <path
     fill="#5b4594"
     d="m 215.38874,0.10108946 15.524,0.0087 -0.14,1.24100004 c -0.695,0.5483 -1.285,0.5454 -2.166,0.6873 -2.44,2.0936 0.718,9.3298995 -1.526,11.8614995 l -0.901,0.0326 -0.251,0.5513 c 0.468,0.4612 0.286,0.2978 0.977,0.5239 0.326,2.0817 -1.438,2.0504 -0.858,3.1921 0.966,-0.0162 0.546,0.1445 1.28,-0.5536 -0.1,0.9501 -0.197,0.9678 -0.729,1.7374 l -1.242,0.4239 c -3.165,-6.5275 -6.715,-13.1488995 -9.968,-19.70609954 z"
     id="path5" />
  <defs
     id="defs6">
    <linearGradient
       id="gradient_2"
       gradientUnits="userSpaceOnUse"
       x1="38.417099"
       y1="361.75162"
       x2="157.86174"
       y2="520.95422"
       gradientTransform="translate(-7.7782568,-13.818911)">
      <stop
         offset="0"
         stop-color="#2D1C4D"
         id="stop5" />
      <stop
         offset="1"
         stop-color="#883B7E"
         id="stop6" />
    </linearGradient>
  </defs>
  <path
     fill="url(#gradient_2)"
     d="m 85.793843,531.39309 c -1.4106,-1.992 -7.0711,-13.664 -8.6167,-16.696 l -18.8896,-36.863 -38.7075,-75.64 c -5.8039,-11.362 -11.6124998,-22.76 -17.4842298,-34.09 -1.02413,-1.976 -1.71768003,-3.936 -1.79172003,-6.16 -0.16899,-5.076 -0.10772,-10.229 -0.10901,-15.314 l -0.00674,-27.4 c -0.00178,-7.845 -0.64845,-72.26 0.46499,-75.164 2.12801003,-5.549 5.10251003,-10.861 7.72371003,-16.194 l 13.1659998,-26.939 11.8128,-24.125 c 5.0731,-10.372 7.8225,-18.07 17.9154,-24.797 10.6989,-7.131 21.5339,-5.871 33.548,-5.87 l 34.645497,0.008 29.216,-0.004 c 2.592,0 11.975,-0.139 14.139,0.272 -1.136,3.322 -2.907,6.254 -4.339,9.416 -3.145,6.946 -7.542,14.59 -10.509,21.495 -3.181,7.764 -7.618,16.123 -11.308,23.729 l -22.39,45.694 -19.413997,39.67 c -2.9818,6.077 -6.3855,13.562 -9.6085,19.355 21.304497,42.717 43.850497,85.683 65.607497,128.215 l 18.742,36.701 c 1.739,3.428 6.415,11.736 7.446,14.596 1.859,3.102 3.276,6.28 4.913,9.501 l 9.438,18.496 33.616,65.557 12.147,23.805 c 1.303,2.513 2.81,5.944 4.156,8.277 -15.414,0.166 -30.828,0.089 -46.433,0.028 -28.442,-0.111 -51.321,3.582 -73.795,-17.926 -10.158,-9.722 -13.858,-20.051 -20.338,-32.233 -1.640997,-3.084 -5.882997,-10.786 -6.973997,-13.58 -2.3787,-5.143 -5.4505,-10.579 -7.9829,-15.82 z"
     id="path6"
     style="fill:url(#gradient_2)" />
  <defs
     id="defs8">
    <linearGradient
       id="gradient_3"
       gradientUnits="userSpaceOnUse"
       x1="-7.4956932"
       y1="302.60471"
       x2="161.44589"
       y2="364.21964"
       gradientTransform="translate(-7.7782568,-13.818911)">
      <stop
         offset="0"
         stop-color="#943187"
         id="stop7" />
      <stop
         offset="1"
         stop-color="#B061A5"
         id="stop8" />
    </linearGradient>
  </defs>
  <path
     fill="url(#gradient_3)"
     d="m 85.793843,531.39309 c -1.4106,-1.992 -7.0711,-13.664 -8.6167,-16.696 l -18.8896,-36.863 -38.7075,-75.64 c -5.8039,-11.362 -11.6124998,-22.76 -17.4842298,-34.09 -1.02413,-1.976 -1.71768003,-3.936 -1.79172003,-6.16 -0.16899,-5.076 -0.10772,-10.229 -0.10901,-15.314 l -0.00674,-27.4 c -0.00178,-7.845 -0.64845,-72.26 0.46499,-75.164 2.12801003,-5.549 5.10251003,-10.861 7.72371003,-16.194 l 13.1659998,-26.939 11.8128,-24.125 c 5.0731,-10.372 7.8225,-18.07 17.9154,-24.797 10.6989,-7.131 21.5339,-5.871 33.548,-5.87 l 34.645497,0.008 29.216,-0.004 c 2.592,0 11.975,-0.139 14.139,0.272 -1.136,3.322 -2.907,6.254 -4.339,9.416 -3.145,6.946 -7.542,14.59 -10.509,21.495 -3.181,7.764 -7.618,16.123 -11.308,23.729 l -22.39,45.694 -19.413997,39.67 c -2.9818,6.077 -6.3855,13.562 -9.6085,19.355 -3.6072,6.05 -8.2368,17.469 -11.0354,24.184 -18.2169,43.71 -22.1229,86.91 -10.6434,133.017 3.8807,15.587 7.8739,27.71 13.4836,42.825 2.0129,5.33 4.0984,10.631 6.2557,15.904 1.124,2.778 3.66,8.326 4.0307,11.075 -0.3655,-0.231 -0.6337,-0.825 -1.5486,-1.388 z"
     id="path8"
     style="fill:url(#gradient_3)" />
  <defs
     id="defs10">
    <linearGradient
       id="gradient_4"
       gradientUnits="userSpaceOnUse"
       x1="139.79076"
       y1="528.65204"
       x2="216.14175"
       y2="644.49426"
       gradientTransform="translate(-7.7782568,-13.818911)">
      <stop
         offset="0"
         stop-color="#883B7E"
         id="stop9" />
      <stop
         offset="1"
         stop-color="#C75BA6"
         id="stop10" />
    </linearGradient>
  </defs>
  <path
     fill="url(#gradient_4)"
     d="m 177.04674,485.28809 c 1.859,3.102 3.276,6.28 4.913,9.501 l 9.438,18.496 33.616,65.557 12.147,23.805 c 1.303,2.513 2.81,5.944 4.156,8.277 -15.414,0.166 -30.828,0.089 -46.433,0.028 -28.442,-0.111 -51.321,3.582 -73.795,-17.926 -10.158,-9.722 -13.858,-20.051 -20.338,-32.233 -1.640997,-3.084 -5.882997,-10.786 -6.973997,-13.58 0.025,-0.965 0.06,-1.257 0.241,-2.207 0.875,-0.665 0.566,-0.64 1.454,-0.618 0.447,0.793 0.204,0.609 0.881,1.072 0.43,-0.535 2.819,-3.635 3.088,-3.75 3.491997,-1.49 5.412997,-1.947 8.557997,-4.189 l 38.957,-28.17 c 1.665,-1.22 3.495,-2.977 5.141,-4.049 5.326,-3.398 10.132,-7.228 14.997,-11.228 2.427,-1.996 6.848,-6.708 9.508,-7.706 z"
     id="path10"
     style="fill:url(#gradient_4)" />
  <defs
     id="defs12">
    <linearGradient
       id="gradient_5"
       gradientUnits="userSpaceOnUse"
       x1="322.06339"
       y1="384.57446"
       x2="205.41301"
       y2="344.94498"
       gradientTransform="translate(-7.7782568,-13.818911)">
      <stop
         offset="0"
         stop-color="#694A99"
         id="stop11" />
      <stop
         offset="1"
         stop-color="#7337CB"
         id="stop12" />
    </linearGradient>
  </defs>
  <path
     fill="url(#gradient_5)"
     d="m 162.81974,146.41709 c 16.25,1.603 28.605,-3.004 44.06,5.609 4.804,2.653 9.068,6.182 12.573,10.405 5.405,6.525 10.465,18.744 14.843,26.419 0.642,1.125 4.73,9.075 5.144,10.185 l 52.835,103.149 14.271,27.804 c 1.862,3.646 3.717,7.333 5.544,10.959 4.636,9.204 5.801,21.328 2.59,31.158 -1.944,5.95 -5.411,12.451 -8.207,18.144 l -13.471,27.409 -13.361,27.354 c -5.687,11.594 -10.025,23.907 -25.178,25.55 -7.005,0.759 -14.129,0.108 -21.161,0.333 -15.471,0.19 -31.328,-0.325 -46.742,0.051 1.889,-5.111 7.44,-15.843 10.009,-21.08 l 18.731,-38.169 17.169,-35.108 c 2.073,-4.238 6.342,-13.638 8.676,-17.346 -8.443,-15.097 -17.227,-33.38 -25.21,-48.981 l -45.905,-89.866 c -6.974,-13.745 -14.698,-29.817 -22.058,-43.068 2.967,-6.905 7.364,-14.549 10.509,-21.495 1.432,-3.162 3.203,-6.094 4.339,-9.416 z"
     id="path12"
     style="fill:url(#gradient_5)" />
  <defs
     id="defs14">
    <linearGradient
       id="gradient_6"
       gradientUnits="userSpaceOnUse"
       x1="277.87534"
       y1="280.81195"
       x2="141.93799"
       y2="243.5511"
       gradientTransform="translate(-7.7782568,-13.818911)">
      <stop
         offset="0"
         stop-color="#33265D"
         id="stop13" />
      <stop
         offset="1"
         stop-color="#5B4594"
         id="stop14" />
    </linearGradient>
  </defs>
  <path
     fill="url(#gradient_6)"
     d="m 162.81974,146.41709 c 16.25,1.603 28.605,-3.004 44.06,5.609 4.804,2.653 9.068,6.182 12.573,10.405 5.405,6.525 10.465,18.744 14.843,26.419 0.642,1.125 4.73,9.075 5.144,10.185 -0.373,0.804 -0.654,1.253 -0.237,2.203 3.439,7.825 6.538,15.773 9.503,23.73 15.336,41.164 16.86,78.953 -0.745,119.758 -2.217,5.138 -4.438,9.48 -6.816,14.517 -8.443,-15.097 -17.227,-33.38 -25.21,-48.981 l -45.905,-89.866 c -6.974,-13.745 -14.698,-29.817 -22.058,-43.068 2.967,-6.905 7.364,-14.549 10.509,-21.495 1.432,-3.162 3.203,-6.094 4.339,-9.416 z"
     id="path14"
     style="fill:url(#gradient_6)" />
</svg>
