<?xml version="1.0" encoding="utf-8"?>
<!-- Generator: Adobe Illustrator 27.0.0, SVG Export Plug-In . SVG Version: 6.00 Build 0)  -->
<svg version="1.1" id="Layer_1" xmlns="http://www.w3.org/2000/svg" xmlns:xlink="http://www.w3.org/1999/xlink" x="0px" y="0px"
	 viewBox="0 0 930.9 1374" style="enable-background:new 0 0 930.9 1374;" xml:space="preserve">
<style type="text/css">
	.st0{fill:url(#SVGID_1_);stroke:#FFFFFF;stroke-width:40;stroke-miterlimit:10;}
	.st1{fill:url(#SVGID_00000041279279154128598800000016097100597891439506_);stroke:#FFFFFF;stroke-width:40;stroke-miterlimit:10;}
	.st2{fill:url(#SVGID_00000147942536260930943980000009268767505794246575_);stroke:#FFFFFF;stroke-width:40;stroke-miterlimit:10;}
	.st3{fill:#4D4D4D;stroke:#FFFFFF;stroke-width:20;stroke-miterlimit:10;}
	.st4{fill:#FFFFFF;}
	.st5{fill:#4D4D4D;stroke:#FFFFFF;stroke-width:25;stroke-miterlimit:10;}
	.st6{fill:url(#SVGID_00000013192874629667681070000005871486302573256837_);stroke:#FFFFFF;stroke-width:20;stroke-miterlimit:10;}
	.st7{fill:url(#SVGID_00000078021341231517007490000014352790801789313185_);stroke:#FFFFFF;stroke-width:20;stroke-miterlimit:10;}
	.st8{fill:url(#SVGID_00000026128089671261692950000011886729887135140266_);stroke:#FFFFFF;stroke-width:20;stroke-miterlimit:10;}
	.st9{fill:none;stroke:#4D4D4D;stroke-width:25;stroke-miterlimit:10;}
	.st10{fill:none;stroke:#4D4D4D;stroke-width:15;stroke-miterlimit:10;}
	.st11{fill:#4D4D4D;}
</style>
<linearGradient id="SVGID_1_" gradientUnits="userSpaceOnUse" x1="465.6557" y1="1312.4086" x2="465.6557" y2="483.7378" gradientTransform="matrix(1 0 0 -1 0 1371.8899)">
	<stop  offset="0" style="stop-color:#D4B258"/>
	<stop  offset="0.4" style="stop-color:#B29650"/>
	<stop  offset="1" style="stop-color:#7A6944"/>
</linearGradient>
<path class="st0" d="M878.8,485.1c-0.3-31.5-13-58.1-36.4-79.6c-0.9-0.9-1.8-1.8-2.7-2.7c-25.7-24.9-51.4-49.8-77.1-74.7
	c-18.9-18.4-37.9-36.9-56.7-55.4c-65.1-64.2-129.7-128.8-194.6-193.1c-13.9-13.8-29.5-20.5-44.7-20c-15.6-1-31.8,5.6-46.2,19.9
	c-64.8,64.4-129.5,128.9-194.5,193.1c-9.7,9.6-19.4,19.1-29.2,28.6c-0.9,0.9-1.8,1.7-2.6,2.6c-34.1,33-68.3,66.1-102.4,99.1
	c-0.9,0.9-1.8,1.8-2.8,2.7c-23.4,21.5-36.1,48-36.4,79.6C52,546.6,52.4,608,52.4,669.4v13.9h0.5c0.1,51,0.2,102,0.4,153
	c0.1,28.5,16,52,51.6,51.7c67.4-0.6,134.8-0.6,202.2-0.5v0.2h202.7c1.5,0,3.1,0.1,5,0.1c23.6,0,47.1,0,70.7-0.1H668v-0.1
	c53,0,106,0,159,0.5c35.6,0.3,51.5-23.2,51.6-51.7c0.2-73.3,0.4-146.5,0.3-219.8C879,572.8,879.1,528.9,878.8,485.1L878.8,485.1z"/>
<linearGradient id="SVGID_00000100369723125934129940000003736837847637871518_" gradientUnits="userSpaceOnUse" x1="466.3059" y1="1169.1586" x2="466.3059" y2="340.4877" gradientTransform="matrix(1 0 0 -1 0 1371.8899)">
	<stop  offset="0" style="stop-color:#0F8AF7"/>
	<stop  offset="0.66" style="stop-color:#0F60AD"/>
	<stop  offset="1" style="stop-color:#104E8C"/>
</linearGradient>
<path style="fill:url(#SVGID_00000100369723125934129940000003736837847637871518_);stroke:#FFFFFF;stroke-width:40;stroke-miterlimit:10;" d="
	M879.4,628.3c-0.3-31.5-13-58.1-36.4-79.6c-0.9-0.9-1.8-1.8-2.7-2.7c-25.7-24.9-51.4-49.8-77.1-74.7c-18.9-18.4-37.9-36.9-56.7-55.4
	c-65.1-64.2-129.7-128.8-194.6-193.1c-13.9-13.8-29.5-20.5-44.7-19.9c-15.6-1.1-31.8,5.6-46.2,19.9
	C356.2,287,291.6,351.6,226.6,415.8c-9.7,9.6-19.4,19.1-29.2,28.6c-0.9,0.9-1.8,1.7-2.6,2.6c-34.1,33-68.3,66.1-102.4,99.2
	c-0.9,0.9-1.8,1.8-2.8,2.7c-23.4,21.5-36.1,48-36.4,79.6c-0.5,61.4-0.1,122.8-0.1,184.3v13.9h0.5c0.1,51,0.2,102,0.4,153
	c0.1,28.5,16,52,51.6,51.7c67.4-0.6,134.8-0.6,202.2-0.5v0.2h202.7c1.5,0.1,3.1,0.1,5,0.1c23.6,0,47.1,0,70.7-0.1h82.5v-0.1
	c53,0,106,0,159,0.5c35.6,0.3,51.5-23.2,51.6-51.7c0.2-73.3,0.4-146.5,0.3-219.8C879.7,716.1,879.8,672.2,879.4,628.3L879.4,628.3z"
	/>
<linearGradient id="SVGID_00000045620827689900170130000012660718279863072146_" gradientUnits="userSpaceOnUse" x1="464.5759" y1="1019.4286" x2="464.5759" y2="190.7577" gradientTransform="matrix(1 0 0 -1 0 1371.8899)">
	<stop  offset="0" style="stop-color:#007258"/>
	<stop  offset="0.33" style="stop-color:#006E55"/>
	<stop  offset="0.6" style="stop-color:#01644D"/>
	<stop  offset="0.84" style="stop-color:#045440"/>
	<stop  offset="1" style="stop-color:#074434"/>
</linearGradient>
<path style="fill:url(#SVGID_00000045620827689900170130000012660718279863072146_);stroke:#FFFFFF;stroke-width:40;stroke-miterlimit:10;" d="
	M877.7,778c-0.3-31.5-13-58.1-36.4-79.6c-0.9-0.9-1.8-1.8-2.7-2.7c-25.7-24.9-51.4-49.8-77.1-74.7c-18.9-18.4-37.9-36.9-56.7-55.4
	c-65.1-64.2-129.7-128.8-194.6-193.1c-13.9-13.8-29.5-20.5-44.7-20c-15.6-1-31.8,5.6-46.2,19.9c-64.8,64.4-129.5,128.9-194.5,193.1
	c-9.7,9.6-19.4,19.1-29.2,28.6c-0.9,0.8-1.8,1.7-2.6,2.6c-34.1,33-68.3,66.1-102.4,99.2c-0.9,0.9-1.8,1.8-2.8,2.7
	c-23.4,21.5-36.1,48-36.4,79.6C51,839.6,51.3,901,51.3,962.4v13.9h0.5c0.1,51,0.2,102,0.4,153c0.1,28.4,16,52,51.6,51.7
	c67.4-0.6,134.8-0.6,202.2-0.5v0.2h202.7c1.5,0.1,3.1,0.1,5,0.1c23.6,0,47.1,0,70.7-0.1H667v-0.1c53,0,106,0,159,0.5
	c35.6,0.3,51.5-23.2,51.6-51.7c0.2-73.3,0.4-146.5,0.3-219.8C878,865.8,878,821.9,877.7,778L877.7,778z"/>
<g>
	<path class="st3" d="M343.7,1118.7c141.1,0,282.2-0.1,423.3-0.1c2.9,0,6.1-0.7,8.2,2.2c-9.1,12.4-18.3,24.7-29.4,35.5
		c-8.5,8.3-18.9,12.7-30.9,13.5c-17.1,1.2-34.2-1.3-51.2,1.4c-68.8,0-137.5,0-206.3-0.1c-14.1-2.4-28.3-1.2-42.4-0.9
		c-20.1,0.5-35.9-7-48.1-22.3C359.1,1138.2,351.4,1128.4,343.7,1118.7z"/>
	<path class="st3" d="M808.2,980.1c35.2,9.6,59.8,37.2,60.8,65.6c1.4,38.2-39.7,77.7-93.7,73.3c-149.9,0-299.8,0-449.8,0
		c-3.6,0-7.6,1.2-10.4-2.3c0.6-1.5,1.1-3.1,1.8-4.5c18.9-41.6,14.3-80.1-17-114.8c-5.7-6.3-12.6-11.7-18.9-17.5
		c11-0.1,21.9-0.3,32.9-0.4c1.4,0,3.1,0.1,5,0.1c0.9,0,6.5,0.1,12.9,0.1c17.9,0,262-2.1,435.6-0.1
		C781.1,979.8,794.6,980,808.2,980.1L808.2,980.1z"/>
	<path class="st4" d="M268.3,966.8c9.6,4.7,19.2,9.5,28.8,14.2c6.3,5.9,13,11.3,18.7,17.8c30.8,35.2,35.4,74.2,16.7,116.4
		c-0.7,1.5-1.2,3.1-1.8,4.6c-9.6,14.5-21.4,27.1-35.4,37.5c-36.7,21.2-74.2,23.6-111.6,2.7c-46.3-26-65.4-80.7-46.2-129.6
		c18.9-48.3,71.1-75.6,123-64.4C262.9,966.6,265.6,966.5,268.3,966.8L268.3,966.8z"/>
	<path class="st5" d="M490.6,974c2.2-10-104.5-25.6-198-81c-92.8-54.9-149.2-135.3-184-201c-10.3,10.7-20.7,21.3-31,32
		c33,71.7,91.1,164.6,193.1,229.8c12.9,8.2,25.7,15.5,38.4,22.1c19.4-0.6,47.4-1.2,81.3-1C461,975.4,489.4,979.1,490.6,974
		L490.6,974z"/>
</g>
<linearGradient id="SVGID_00000089571135951510969080000009492765351288498101_" gradientUnits="userSpaceOnUse" x1="343.9653" y1="163.4911" x2="343.9653" y2="52.371" gradientTransform="matrix(1 0 0 -1 0 1371.8899)">
	<stop  offset="0" style="stop-color:#D4B258"/>
	<stop  offset="0.23" style="stop-color:#D0AF57"/>
	<stop  offset="0.44" style="stop-color:#C5A654"/>
	<stop  offset="0.63" style="stop-color:#B49850"/>
	<stop  offset="0.82" style="stop-color:#9B834B"/>
	<stop  offset="1" style="stop-color:#7A6944"/>
	<stop  offset="1" style="stop-color:#7A6944"/>
</linearGradient>
<circle style="fill:url(#SVGID_00000089571135951510969080000009492765351288498101_);stroke:#FFFFFF;stroke-width:20;stroke-miterlimit:10;" cx="344" cy="1264" r="55.6"/>
<linearGradient id="SVGID_00000030483343410119277980000009134615897257334946_" gradientUnits="userSpaceOnUse" x1="588.0754" y1="163.5411" x2="588.0754" y2="52.421" gradientTransform="matrix(1 0 0 -1 0 1371.8899)">
	<stop  offset="0" style="stop-color:#0F8AF7"/>
	<stop  offset="0.16" style="stop-color:#0F86F1"/>
	<stop  offset="0.38" style="stop-color:#0F7DE0"/>
	<stop  offset="0.62" style="stop-color:#0F6DC4"/>
	<stop  offset="0.89" style="stop-color:#0F589E"/>
	<stop  offset="1" style="stop-color:#104E8C"/>
</linearGradient>
<circle style="fill:url(#SVGID_00000030483343410119277980000009134615897257334946_);stroke:#FFFFFF;stroke-width:20;stroke-miterlimit:10;" cx="588.1" cy="1263.9" r="55.6"/>
<linearGradient id="SVGID_00000084524043868649724690000015530777374920346528_" gradientUnits="userSpaceOnUse" x1="465.9853" y1="163.5411" x2="465.9853" y2="52.421" gradientTransform="matrix(1 0 0 -1 0 1371.8899)">
	<stop  offset="0" style="stop-color:#007258"/>
	<stop  offset="0.28" style="stop-color:#006C53"/>
	<stop  offset="0.62" style="stop-color:#035C47"/>
	<stop  offset="1" style="stop-color:#074434"/>
</linearGradient>
<circle style="fill:url(#SVGID_00000084524043868649724690000015530777374920346528_);stroke:#FFFFFF;stroke-width:20;stroke-miterlimit:10;" cx="466" cy="1263.9" r="55.6"/>
<g>
	<ellipse class="st9" cx="236.6" cy="1069.5" rx="79.5" ry="80"/>
	<ellipse class="st10" cx="236.6" cy="1069.5" rx="44.3" ry="44.6"/>
	<ellipse class="st11" cx="237.3" cy="1068.2" rx="19.2" ry="19.3"/>
	<path class="st11" d="M236.9,1066.8c-4.9,0.2-8.3-2.4-9.1-3.1c1.6-23.6,3.3-47.1,4.9-70.7c0-2,1.6-3.6,3.5-3.6s3.5,1.6,3.5,3.6
		c2.1,23.3,4.2,46.6,6.3,69.9C245.3,1063.7,242,1066.7,236.9,1066.8L236.9,1066.8z"/>
	<path class="st11" d="M242.4,1067.4c2.3-4.4,6.2-6,7.2-6.4c19.5,13.2,38.9,26.4,58.4,39.6c1.7,1,2.3,3.2,1.3,4.9s-3.2,2.3-4.8,1.3
		c-21.1-9.8-42.2-19.7-63.3-29.5C240.9,1076.2,240,1071.9,242.4,1067.4L242.4,1067.4z"/>
	<path class="st11" d="M232.3,1068.3c2.6,4.2,2.1,8.4,1.9,9.5c-21.1,10.4-42.2,20.7-63.3,31.1c-1.7,1-3.9,0.4-4.8-1.3
		c-1-1.7-0.4-3.9,1.3-4.9c19-13.5,38-27,57-40.4C225.4,1062.6,229.6,1063.9,232.3,1068.3z"/>
</g>
</svg>
